<svg width="94" height="95" viewBox="0 0 94 95" fill="none" xmlns="http://www.w3.org/2000/svg">
<circle cx="47" cy="47.002" r="46.5" stroke="url(#paint0_linear_1431_1173)"/>
<circle cx="47" cy="47.002" r="46.5" stroke="url(#paint1_linear_1431_1173)"/>
<path d="M61.2635 42.0002C60.4822 41.9102 59.7431 41.5977 59.1343 41.0997C58.5255 40.6018 58.0726 39.9394 57.8294 39.1914C57.5862 38.4434 57.563 37.6414 57.7625 36.8806C57.9621 36.1198 58.376 35.4324 58.955 34.9001L48.3395 28.7763C47.8463 28.4886 47.2855 28.3369 46.7144 28.3369C46.1434 28.3369 45.5826 28.4886 45.0893 28.7763L34.4251 34.921C34.845 35.3011 35.1805 35.765 35.4099 36.2828C35.6394 36.8005 35.7577 37.3607 35.7573 37.9271C35.7553 38.5397 35.616 39.144 35.3497 39.6957C35.0834 40.2475 34.6969 40.7325 34.2185 41.1152C33.7402 41.4979 33.1821 41.7685 32.5854 41.9072C31.9887 42.0458 31.3685 42.049 30.7704 41.9165V53.5712C30.7725 54.1417 30.9236 54.7017 31.2086 55.1959C31.4936 55.6901 31.9028 56.1014 32.3955 56.3889L42.7389 62.3522C43.7126 58.2035 49.7214 58.2166 50.69 62.3523L61.0334 56.382C61.5264 56.0965 61.936 55.6867 62.2211 55.1935C62.5063 54.7003 62.6571 54.1409 62.6584 53.5712V41.9026C62.2025 42.0147 61.7307 42.0477 61.2635 42.0002ZM47.6072 58.1675C47.3037 58.3434 46.9587 58.435 46.6079 58.4325C46.2571 58.4301 45.9134 58.3337 45.6124 58.1535L36.8871 53.055C36.5861 52.8793 36.3362 52.6278 36.1625 52.3256C35.9887 52.0234 35.8971 51.6809 35.8967 51.3323V41.0796C35.9008 40.729 35.9946 40.3854 36.1692 40.0813C36.3438 39.7773 36.5934 39.5231 36.8941 39.3429L45.6124 34.3212C45.9163 34.148 46.26 34.057 46.6098 34.057C46.9596 34.057 47.3033 34.148 47.6072 34.3212L56.5277 39.4405C56.832 39.6173 57.0848 39.8706 57.261 40.1752C57.4372 40.4799 57.5306 40.8253 57.5321 41.1772V51.3602C57.5326 51.7143 57.4392 52.0622 57.2616 52.3684C57.0839 52.6747 56.8283 52.9285 56.5208 53.1039L47.6072 58.1675ZM31.67 35.2348C35.271 35.3344 35.1904 40.6075 31.6074 40.6262C30.9026 40.6029 30.235 40.3045 29.7477 39.7948C29.2603 39.2852 28.992 38.605 29.0002 37.8999C29.0084 37.1948 29.2924 36.5209 29.7915 36.0228C30.2906 35.5246 30.9649 35.2418 31.67 35.2348ZM61.689 40.6262C60.9788 40.619 60.3002 40.3318 59.8005 39.8271C59.3009 39.3223 59.0206 38.6408 59.0206 37.9306C59.0206 37.2203 59.3008 36.5388 59.8005 36.034C60.3001 35.5293 60.9788 35.2421 61.689 35.2348C62.3992 35.2421 63.0778 35.5292 63.5775 36.034C64.0771 36.5387 64.3574 37.2203 64.3574 37.9305C64.3574 38.6407 64.0772 39.3223 63.5775 39.827C63.0779 40.3318 62.3992 40.619 61.689 40.6262ZM46.7145 66C46.0034 65.9942 45.3233 65.7076 44.8226 65.2027C44.3218 64.6978 44.0408 64.0154 44.0408 63.3043C44.0408 62.5932 44.3217 61.9108 44.8225 61.4059C45.3233 60.901 46.0033 60.6144 46.7144 60.6086C47.4255 60.6144 48.1055 60.901 48.6063 61.4059C49.1071 61.9108 49.3881 62.5931 49.3881 63.3043C49.3881 64.0154 49.1071 64.6977 48.6064 65.2026C48.1056 65.7076 47.4256 65.9941 46.7145 66ZM47.4119 46.6593L56.1372 41.8747V51.3602C56.1377 51.4678 56.1095 51.5737 56.0556 51.6668C56.0017 51.76 55.9239 51.8371 55.8303 51.8902L47.4119 56.6749V46.6593ZM37.2917 41.7352L46.017 46.6454V56.7795L37.5916 51.8554C37.5007 51.8016 37.4252 51.7251 37.3727 51.6334C37.3201 51.5417 37.2922 51.438 37.2917 51.3323V41.7352ZM55.6559 40.5495L46.7214 45.4457L37.8148 40.4309L46.3099 35.5347C46.4016 35.4806 46.5059 35.4514 46.6124 35.4502C46.7189 35.4489 46.8238 35.4757 46.9167 35.5278L55.6559 40.5495Z" fill="url(#paint2_linear_1431_1173)"/>
<defs>
<linearGradient id="paint0_linear_1431_1173" x1="47" y1="0.00195312" x2="47" y2="94.002" gradientUnits="userSpaceOnUse">
<stop stop-color="#265ADF"/>
<stop offset="1" stop-color="#265ADF" stop-opacity="0"/>
</linearGradient>
<linearGradient id="paint1_linear_1431_1173" x1="47" y1="0.00195312" x2="47" y2="94.002" gradientUnits="userSpaceOnUse">
<stop stop-color="#265ADF"/>
<stop offset="1" stop-color="#265ADF" stop-opacity="0"/>
</linearGradient>
<linearGradient id="paint2_linear_1431_1173" x1="29.0002" y1="47.1685" x2="64.3637" y2="47.1685" gradientUnits="userSpaceOnUse">
<stop stop-color="#50B5FF"/>
<stop offset="1" stop-color="#255BDF"/>
</linearGradient>
</defs>
</svg>
